<svg xmlns="http://www.w3.org/2000/svg" xmlns:xlink="http://www.w3.org/1999/xlink" width="512" zoomAndPan="magnify" viewBox="0 0 384 383.999986" height="512" preserveAspectRatio="xMidYMid meet" version="1.0"><defs><clipPath id="562bdeb023"><path d="M 106 108 L 318.335938 108 L 318.335938 232 L 106 232 Z M 106 108 " clip-rule="nonzero"/></clipPath><clipPath id="00da37bb0f"><path d="M 109 42 L 318.335938 42 L 318.335938 127 L 109 127 Z M 109 42 " clip-rule="nonzero"/></clipPath></defs><path fill="#222222" d="M 124.777344 125.117188 C 124.867188 125.289062 124.957031 125.460938 125.046875 125.632812 C 125.324219 99.480469 150.375 81.863281 185.886719 88.195312 C 218.300781 93.972656 262.410156 129.097656 304.820312 116.136719 C 293.125 133.71875 256.097656 179.484375 188.429688 177.632812 C 111.242188 175.519531 122.554688 131.878906 124.777344 125.117188 Z M 124.777344 125.117188 " fill-opacity="1" fill-rule="evenodd"/><path fill="#222222" d="M 126.273438 125.574219 C 126.292969 126.035156 126.054688 126.492188 125.617188 126.71875 C 125.601562 126.730469 125.582031 126.738281 125.5625 126.746094 C 124.308594 131.214844 122.230469 142.113281 127.898438 152.53125 C 134.269531 164.230469 150.425781 175.367188 188.460938 176.40625 C 221.988281 177.324219 247.917969 166.449219 266.914062 153.167969 C 284.066406 141.179688 295.570312 127.226562 301.914062 118.210938 C 274.507812 125.046875 246.738281 113.046875 221.882812 102.296875 C 208.800781 96.644531 196.539062 91.339844 185.675781 89.40625 C 181.089844 88.585938 176.699219 88.171875 172.539062 88.128906 C 160.042969 88 149.421875 91.15625 141.519531 96.699219 C 133.683594 102.199219 128.515625 110.054688 126.855469 119.371094 C 126.496094 121.390625 126.296875 123.460938 126.273438 125.574219 Z M 123.855469 124.304688 C 123.933594 122.464844 124.128906 120.675781 124.4375 118.949219 C 126.214844 108.972656 131.738281 100.566406 140.109375 94.695312 C 148.417969 88.867188 159.527344 85.542969 172.558594 85.679688 C 176.890625 85.726562 181.414062 86.148438 186.097656 86.984375 C 197.210938 88.964844 209.617188 94.332031 222.851562 100.050781 C 248.304688 111.054688 276.859375 123.402344 304.464844 114.964844 C 305.113281 114.769531 305.796875 115.132812 305.992188 115.78125 C 306.101562 116.144531 306.035156 116.519531 305.839844 116.8125 L 305.84375 116.8125 C 299.949219 125.679688 287.664062 141.652344 268.316406 155.175781 C 248.960938 168.710938 222.539062 179.792969 188.394531 178.855469 C 149.246094 177.785156 132.464844 166.046875 125.75 153.703125 C 118.96875 141.246094 122.464844 128.230469 123.609375 124.738281 C 123.664062 124.574219 123.75 124.425781 123.859375 124.304688 Z M 123.855469 124.304688 " fill-opacity="1" fill-rule="nonzero"/><path fill="#0ec27b" d="M 125.085938 124.238281 C 108.402344 143.757812 84.644531 189.496094 154.785156 222.53125 C 224.925781 255.566406 316.542969 177.546875 316.925781 111.042969 L 308.941406 109.390625 C 308.941406 109.390625 272.109375 179.921875 188.429688 177.632812 C 104.75 175.34375 125.085938 124.238281 125.085938 124.238281 Z M 125.085938 124.238281 " fill-opacity="1" fill-rule="evenodd"/><g clip-path="url(#562bdeb023)"><path fill="#222222" d="M 122.371094 129.609375 C 119.46875 133.515625 116.574219 138.097656 114.1875 143.160156 C 110.085938 151.871094 107.496094 162.011719 108.996094 172.570312 C 110.492188 183.125 116.09375 194.140625 128.382812 204.644531 C 135.175781 210.453125 144.003906 216.097656 155.308594 221.421875 C 166.445312 226.667969 178.132812 229.070312 189.902344 229.140625 C 213.605469 229.273438 237.675781 219.953125 258.332031 205.277344 C 279.019531 190.585938 296.265625 170.539062 306.292969 149.253906 C 312.070312 136.984375 315.445312 124.3125 315.6875 112.039062 L 309.578125 110.773438 C 305.179688 118.613281 267.65625 181.027344 188.394531 178.855469 C 120.460938 177 119.777344 143.378906 122.371094 129.609375 Z M 111.96875 142.113281 C 115.453125 134.714844 119.988281 128.324219 124.105469 123.5 C 124.425781 123.074219 125 122.894531 125.523438 123.09375 C 126.15625 123.332031 126.476562 124.042969 126.234375 124.675781 C 126.179688 124.820312 106.527344 174.164062 188.460938 176.40625 C 270.382812 178.648438 306.871094 110.679688 307.835938 108.859375 C 308.074219 108.363281 308.621094 108.074219 309.183594 108.1875 L 317.167969 109.84375 C 317.730469 109.957031 318.152344 110.453125 318.148438 111.046875 C 318.074219 124.011719 314.59375 137.390625 308.511719 150.300781 C 298.308594 171.960938 280.777344 192.34375 259.753906 207.277344 C 238.703125 222.226562 214.136719 231.726562 189.890625 231.585938 C 177.769531 231.519531 165.730469 229.042969 154.261719 223.640625 C 142.753906 218.222656 133.742188 212.453125 126.789062 206.507812 C 113.988281 195.566406 108.140625 184.011719 106.566406 172.90625 C 104.988281 161.808594 107.6875 151.203125 111.96875 142.113281 Z M 111.96875 142.113281 " fill-opacity="1" fill-rule="nonzero"/></g><path fill="#dbff12" d="M 133.773438 210.433594 C 134.460938 213.574219 135.253906 216.59375 136.125 219.507812 C 134.835938 214.207031 133.847656 210.6875 133.773438 210.433594 Z M 133.773438 210.433594 " fill-opacity="1" fill-rule="evenodd"/><path fill="#222222" d="M 133.691406 215.363281 C 133.285156 213.789062 132.910156 212.230469 132.574219 210.695312 C 132.4375 210.066406 132.816406 209.429688 133.445312 209.253906 C 134.097656 209.070312 134.773438 209.449219 134.957031 210.101562 C 135 210.261719 135.425781 211.773438 136.105469 214.40625 C 136.453125 215.738281 136.855469 217.335938 137.296875 219.144531 L 137.300781 219.15625 C 137.496094 219.804688 137.125 220.492188 136.476562 220.683594 C 135.828125 220.878906 135.144531 220.507812 134.949219 219.859375 C 134.519531 218.425781 134.101562 216.929688 133.691406 215.363281 Z M 133.691406 215.363281 " fill-opacity="1" fill-rule="nonzero"/><path fill="#cd0e0e" d="M 187.351562 135.933594 C 161.4375 127.585938 136.601562 131.914062 132.015625 171.167969 C 130.027344 188.210938 134.5625 220.289062 142.789062 242.835938 C 157.8125 283.992188 172.53125 295.003906 109.9375 278.234375 C 101.679688 276.019531 87.339844 272.1875 90.867188 278.285156 C 94.398438 284.386719 99.269531 289.390625 78.625 284.996094 C 65.628906 282.230469 98.207031 320.09375 146.597656 329.699219 C 242.757812 348.78125 231.929688 299.980469 211.921875 225.824219 C 205.25 201.097656 228.675781 151.785156 259.308594 159.28125 C 259.308594 159.28125 247.878906 105.417969 187.351562 135.933594 Z M 187.351562 135.933594 " fill-opacity="1" fill-rule="evenodd"/><path fill="#222222" d="M 186.9375 137.085938 C 182.242188 135.578125 177.582031 134.492188 173.078125 133.964844 C 164.875 133.007812 157.210938 133.917969 150.832031 137.539062 C 144.460938 141.15625 139.316406 147.507812 136.117188 157.449219 C 134.824219 161.460938 133.847656 166.0625 133.238281 171.308594 C 132.238281 179.851562 132.90625 192.265625 134.875 205.351562 C 136.789062 218.074219 139.921875 231.402344 143.941406 242.417969 C 146.261719 248.777344 148.574219 254.40625 150.589844 259.320312 C 155 270.0625 158.046875 277.496094 156.839844 282.015625 C 154.863281 289.390625 142.765625 288.300781 109.621094 279.417969 C 105.527344 278.324219 99.925781 276.824219 95.847656 276.363281 C 93.03125 276.042969 91.097656 276.238281 91.929688 277.671875 C 92.25 278.226562 92.582031 278.769531 92.902344 279.300781 C 94.3125 281.613281 95.5625 283.664062 95.199219 285.367188 C 94.640625 287.988281 90.621094 288.804688 78.371094 286.199219 C 77.558594 286.023438 77.105469 286.015625 76.96875 286.144531 C 76.777344 286.324219 77.046875 287.09375 77.71875 288.324219 C 78.628906 290.003906 80.285156 292.160156 82.605469 294.613281 C 93.140625 305.75 116.929688 322.558594 146.835938 328.492188 C 194.152344 337.882812 215.082031 330.761719 221.664062 312.3125 C 228.355469 293.574219 220.683594 263.015625 210.734375 226.140625 C 208.890625 219.300781 209.269531 210.675781 211.425781 201.871094 C 213.75 192.367188 218.144531 182.628906 224.035156 174.703125 C 229.984375 166.699219 237.472656 160.519531 245.921875 158.238281 C 249.65625 157.234375 253.570312 156.988281 257.617188 157.679688 C 254.945312 148.605469 240.304688 110.609375 187.902344 137.027344 C 187.589844 137.183594 187.242188 137.195312 186.9375 137.085938 Z M 173.359375 131.523438 C 177.878906 132.050781 182.546875 133.125 187.253906 134.613281 C 248.796875 103.890625 260.46875 158.855469 260.503906 159.011719 C 260.542969 159.191406 260.542969 159.378906 260.5 159.570312 C 260.339844 160.226562 259.675781 160.632812 259.019531 160.472656 C 254.695312 159.414062 250.515625 159.542969 246.558594 160.613281 C 238.679688 162.738281 231.644531 168.574219 226.003906 176.160156 C 220.308594 183.824219 216.054688 193.25 213.804688 202.445312 C 211.746094 210.863281 211.367188 219.066406 213.105469 225.507812 C 223.167969 262.792969 230.914062 293.710938 223.980469 313.140625 C 216.941406 332.859375 195.203125 340.597656 146.363281 330.902344 C 115.886719 324.855469 91.601562 307.679688 80.828125 296.292969 C 78.355469 293.679688 76.570312 291.347656 75.566406 289.496094 C 74.316406 287.203125 74.1875 285.40625 75.277344 284.367188 C 76.015625 283.664062 77.210938 283.441406 78.878906 283.796875 C 89.285156 286.011719 92.558594 285.988281 92.796875 284.855469 C 92.957031 284.105469 91.949219 282.449219 90.808594 280.578125 C 90.476562 280.03125 90.136719 279.472656 89.804688 278.902344 C 87.109375 274.238281 90.582031 273.296875 96.117188 273.925781 C 100.390625 274.40625 106.089844 275.929688 110.253906 277.046875 C 141.640625 285.457031 152.988281 286.890625 154.464844 281.378906 C 155.464844 277.65625 152.542969 270.539062 148.324219 260.253906 C 146.292969 255.300781 143.964844 249.632812 141.636719 243.253906 C 137.554688 232.070312 134.378906 218.574219 132.445312 205.71875 C 130.449219 192.433594 129.773438 179.789062 130.796875 171.03125 C 131.425781 165.632812 132.4375 160.871094 133.78125 156.699219 C 137.191406 146.117188 142.730469 139.320312 149.621094 135.40625 C 156.5 131.503906 164.664062 130.511719 173.359375 131.523438 Z M 173.359375 131.523438 " fill-opacity="1" fill-rule="nonzero"/><path fill="#222222" d="M 177.628906 199.480469 C 177.890625 200.105469 177.597656 200.820312 176.972656 201.085938 C 176.351562 201.347656 175.632812 201.054688 175.371094 200.429688 C 172.132812 192.734375 171.371094 177.035156 173.800781 162.695312 C 175.789062 150.96875 179.921875 140.0625 186.605469 134.957031 C 187.144531 134.546875 187.914062 134.648438 188.324219 135.1875 C 188.734375 135.726562 188.632812 136.496094 188.09375 136.90625 C 181.964844 141.589844 178.117188 151.917969 176.222656 163.097656 C 173.859375 177.03125 174.550781 192.164062 177.628906 199.480469 Z M 177.628906 199.480469 " fill-opacity="1" fill-rule="nonzero"/><path fill="#0ec27b" d="M 125.046875 125.632812 C 125.324219 99.480469 150.375 81.863281 185.886719 88.195312 C 221.398438 94.527344 270.949219 136.09375 316.925781 111.042969 C 316.925781 111.042969 284.714844 98.105469 275.355469 76.355469 C 265.996094 54.609375 250.328125 35.253906 217.054688 46.984375 C 183.78125 58.714844 171.8125 59.671875 154.335938 51.054688 C 136.859375 42.4375 86.828125 53.207031 125.046875 125.632812 Z M 125.046875 125.632812 " fill-opacity="1" fill-rule="evenodd"/><g clip-path="url(#00da37bb0f)"><path fill="#222222" d="M 124.113281 121.125 C 124.199219 120.390625 124.308594 119.664062 124.4375 118.949219 C 126.214844 108.972656 131.734375 100.566406 140.109375 94.695312 C 148.417969 88.867188 159.527344 85.542969 172.558594 85.679688 C 176.886719 85.726562 181.414062 86.148438 186.097656 86.984375 C 197.214844 88.964844 209.621094 94.332031 222.855469 100.054688 C 251.253906 112.335938 283.515625 126.285156 314.070312 111.140625 C 306.371094 107.640625 282.230469 95.441406 274.226562 76.84375 C 269.625 66.152344 263.5 56.070312 254.5 50.140625 C 245.558594 44.25 233.679688 42.425781 217.460938 48.140625 C 200.71875 54.042969 189.316406 57.238281 179.851562 57.875 C 170.269531 58.519531 162.730469 56.5625 153.792969 52.152344 C 149.109375 49.84375 141.945312 49.003906 134.847656 50.515625 C 129.539062 51.648438 124.289062 54.109375 120.199219 58.273438 C 116.105469 62.433594 113.152344 68.320312 112.414062 76.316406 C 111.414062 87.128906 114.449219 101.753906 124.113281 121.125 Z M 126.855469 119.371094 C 126.496094 121.390625 126.296875 123.460938 126.273438 125.574219 C 126.292969 126.035156 126.054688 126.492188 125.617188 126.71875 C 125.019531 127.035156 124.277344 126.804688 123.960938 126.207031 C 112.457031 104.398438 108.871094 88.0625 109.972656 76.097656 C 110.769531 67.472656 113.988281 61.089844 118.449219 56.554688 C 122.910156 52.015625 128.597656 49.339844 134.339844 48.113281 C 141.972656 46.484375 149.75 47.425781 154.878906 49.953125 C 163.417969 54.164062 170.597656 56.035156 179.6875 55.425781 C 188.894531 54.804688 200.113281 51.65625 216.644531 45.828125 C 233.699219 39.816406 246.292969 41.800781 255.84375 48.09375 C 265.335938 54.347656 271.726562 64.8125 276.484375 75.871094 C 285.644531 97.152344 317.292969 109.867188 317.386719 109.90625 L 317.382812 109.90625 C 317.636719 110.011719 317.859375 110.199219 318 110.457031 C 318.324219 111.050781 318.105469 111.796875 317.511719 112.121094 C 285.242188 129.703125 251.5 115.109375 221.886719 102.304688 C 208.804688 96.644531 196.539062 91.34375 185.675781 89.40625 C 181.089844 88.585938 176.703125 88.171875 172.539062 88.128906 C 160.042969 88 149.421875 91.15625 141.519531 96.699219 C 133.683594 102.199219 128.519531 110.054688 126.855469 119.371094 Z M 126.855469 119.371094 " fill-opacity="1" fill-rule="nonzero"/></g><path fill="#fefefe" d="M 125.332031 121.296875 C 128.925781 121.8125 134.824219 120.617188 148.71875 117.355469 C 179.273438 110.183594 211.070312 104.261719 230.710938 111.121094 C 244.046875 115.777344 251.632812 118.847656 253.175781 113.316406 C 228.492188 105.398438 205.128906 91.625 185.886719 88.195312 C 152.375 82.21875 128.183594 97.574219 125.332031 121.296875 Z M 125.332031 121.296875 " fill-opacity="1" fill-rule="evenodd"/><path fill="#222222" d="M 126.726562 120.179688 C 128.246094 120.222656 130.214844 120.011719 132.949219 119.53125 C 136.59375 118.894531 141.519531 117.785156 148.441406 116.160156 C 163.75 112.566406 179.382812 109.285156 193.675781 107.757812 C 208.066406 106.21875 221.101562 106.464844 231.113281 109.960938 C 231.953125 110.253906 232.769531 110.542969 233.566406 110.820312 C 237.417969 112.175781 240.730469 113.339844 243.464844 114.101562 C 247.582031 115.25 250.269531 115.484375 251.460938 114.046875 C 241.304688 110.699219 231.382812 106.40625 221.886719 102.300781 C 208.804688 96.644531 196.539062 91.34375 185.675781 89.40625 C 184.050781 89.117188 182.453125 88.875 180.882812 88.6875 C 166.171875 86.917969 153.542969 89.4375 144.148438 95.007812 C 134.839844 100.527344 128.699219 109.054688 126.859375 119.371094 C 126.8125 119.640625 126.765625 119.910156 126.726562 120.179688 Z M 133.375 121.953125 C 129.617188 122.613281 127.136719 122.785156 125.210938 122.519531 L 125.1875 122.519531 C 124.515625 122.4375 124.03125 121.828125 124.113281 121.152344 C 124.203125 120.40625 124.3125 119.671875 124.441406 118.949219 C 126.410156 107.902344 132.964844 98.785156 142.898438 92.894531 C 152.742188 87.058594 165.902344 84.414062 181.171875 86.25 C 182.796875 86.445312 184.4375 86.6875 186.097656 86.984375 C 197.214844 88.964844 209.621094 94.332031 222.859375 100.054688 C 232.703125 104.3125 243.007812 108.765625 253.550781 112.148438 C 254.171875 112.347656 254.53125 113.007812 254.355469 113.644531 C 253.125 118.058594 249.269531 118.265625 242.8125 116.464844 C 239.996094 115.679688 236.652344 114.503906 232.757812 113.136719 C 231.964844 112.855469 231.148438 112.570312 230.308594 112.277344 C 220.679688 108.914062 207.996094 108.695312 193.9375 110.195312 C 179.785156 111.707031 164.238281 114.972656 148.996094 118.550781 C 142.023438 120.1875 137.054688 121.308594 133.375 121.953125 Z M 133.375 121.953125 " fill-opacity="1" fill-rule="nonzero"/><path fill="#222222" d="M 140.796875 94.679688 C 140.914062 94.011719 141.550781 93.566406 142.21875 93.683594 C 142.886719 93.800781 143.335938 94.4375 143.21875 95.105469 C 143.160156 95.4375 143.117188 95.785156 143.085938 96.148438 C 142.78125 99.832031 143.921875 104.75 145.511719 108.824219 C 147.015625 112.675781 148.777344 115.679688 149.890625 115.878906 L 149.894531 115.878906 C 150.570312 115.933594 151.074219 116.527344 151.015625 117.203125 C 150.960938 117.878906 150.367188 118.382812 149.691406 118.328125 C 149.617188 118.320312 149.542969 118.3125 149.46875 118.300781 C 147.484375 117.945312 145.015625 114.304688 143.226562 109.714844 C 141.519531 105.34375 140.300781 100.015625 140.636719 95.945312 C 140.671875 95.511719 140.726562 95.089844 140.796875 94.679688 Z M 140.796875 94.679688 " fill-opacity="1" fill-rule="nonzero"/><path fill="#222222" d="M 162.242188 87.101562 C 162.414062 86.445312 163.085938 86.054688 163.742188 86.226562 C 164.394531 86.398438 164.789062 87.070312 164.613281 87.726562 C 164.355469 88.714844 164.1875 89.75 164.097656 90.808594 C 163.710938 95.507812 164.9375 100.535156 166.625 104.484375 C 168.234375 108.253906 170.125 110.945312 171.285156 111.25 C 171.289062 111.253906 171.296875 111.253906 171.308594 111.253906 C 171.984375 111.308594 172.484375 111.902344 172.429688 112.578125 C 172.375 113.253906 171.78125 113.757812 171.105469 113.703125 C 170.964844 113.691406 170.820312 113.664062 170.664062 113.625 C 168.828125 113.140625 166.261719 109.882812 164.367188 105.445312 C 162.546875 101.183594 161.226562 95.738281 161.648438 90.605469 C 161.746094 89.421875 161.941406 88.25 162.242188 87.101562 Z M 162.242188 87.101562 " fill-opacity="1" fill-rule="nonzero"/><path fill="#222222" d="M 186.75 88.417969 C 186.851562 87.746094 187.476562 87.285156 188.148438 87.386719 C 188.820312 87.488281 189.28125 88.113281 189.179688 88.785156 C 189.148438 88.980469 189.125 89.1875 189.109375 89.398438 C 188.847656 92.535156 189.902344 97.082031 191.394531 100.917969 C 192.800781 104.523438 194.460938 107.410156 195.5625 107.582031 L 195.566406 107.582031 C 196.242188 107.636719 196.746094 108.230469 196.691406 108.90625 C 196.636719 109.582031 196.042969 110.085938 195.367188 110.03125 C 195.300781 110.027344 195.242188 110.019531 195.191406 110.011719 C 193.167969 109.695312 190.804688 106.15625 189.109375 101.800781 C 187.5 97.667969 186.367188 92.707031 186.660156 89.199219 C 186.679688 88.929688 186.710938 88.671875 186.75 88.417969 Z M 195.566406 107.582031 C 195.570312 107.582031 195.566406 107.582031 195.566406 107.582031 Z M 195.566406 107.582031 Z M 195.566406 107.582031 " fill-opacity="1" fill-rule="nonzero"/><path fill="#222222" d="M 209.914062 96.679688 C 209.746094 96.027344 210.140625 95.355469 210.792969 95.1875 C 211.449219 95.015625 212.117188 95.410156 212.289062 96.066406 C 213.058594 99.011719 214.226562 102.011719 215.457031 104.230469 C 216.441406 106.003906 217.34375 107.195312 217.910156 107.242188 C 218.585938 107.296875 219.089844 107.890625 219.03125 108.570312 C 218.976562 109.246094 218.382812 109.746094 217.707031 109.691406 C 216.242188 109.570312 214.683594 107.886719 213.316406 105.421875 C 211.992188 103.03125 210.738281 99.816406 209.914062 96.679688 Z M 209.914062 96.679688 " fill-opacity="1" fill-rule="nonzero"/><path fill="#222222" d="M 93.6875 286.71875 C 93.015625 286.628906 92.546875 286.007812 92.640625 285.335938 C 92.730469 284.664062 93.351562 284.199219 94.023438 284.289062 C 103.460938 285.628906 111.066406 288.851562 118.582031 292.042969 C 124.863281 294.707031 131.085938 297.34375 138.238281 298.777344 C 138.90625 298.90625 139.335938 299.554688 139.203125 300.222656 C 139.070312 300.886719 138.425781 301.320312 137.757812 301.1875 C 130.398438 299.714844 124.046875 297.019531 117.632812 294.300781 C 110.265625 291.175781 102.8125 288.011719 93.683594 286.71875 Z M 93.6875 286.71875 " fill-opacity="1" fill-rule="nonzero"/><path fill="#cd0e0e" d="M 230.851562 96.167969 C 230.125 95.96875 229.40625 95.734375 228.699219 95.460938 C 227.992188 95.191406 227.300781 94.886719 226.625 94.546875 C 225.949219 94.207031 225.289062 93.835938 224.648438 93.433594 C 224.011719 93.03125 223.390625 92.597656 222.792969 92.132812 C 222.195312 91.667969 221.625 91.175781 221.074219 90.65625 C 220.523438 90.132812 220.003906 89.589844 219.507812 89.015625 C 219.011719 88.445312 218.546875 87.847656 218.109375 87.230469 C 217.671875 86.613281 217.265625 85.976562 216.894531 85.320312 C 216.519531 84.660156 216.175781 83.988281 215.871094 83.296875 C 215.5625 82.605469 215.289062 81.902344 215.050781 81.183594 C 214.8125 80.464844 214.609375 79.738281 214.441406 79 C 214.273438 78.261719 214.140625 77.515625 214.046875 76.765625 C 213.953125 76.015625 213.898438 75.261719 213.878906 74.503906 C 213.855469 73.75 213.875 72.992188 213.929688 72.238281 C 213.980469 71.484375 214.074219 70.734375 214.199219 69.988281 C 214.328125 69.242188 214.492188 68.503906 214.691406 67.777344 C 214.894531 67.046875 215.128906 66.328125 215.398438 65.621094 C 215.671875 64.914062 215.976562 64.222656 216.316406 63.546875 C 216.652344 62.871094 217.023438 62.214844 217.429688 61.574219 C 217.832031 60.933594 218.265625 60.316406 218.730469 59.71875 C 219.195312 59.121094 219.6875 58.546875 220.207031 57.996094 C 220.726562 57.449219 221.273438 56.925781 221.84375 56.429688 C 222.417969 55.9375 223.011719 55.46875 223.628906 55.03125 C 224.246094 54.597656 224.886719 54.191406 225.542969 53.816406 C 226.199219 53.441406 226.875 53.101562 227.566406 52.792969 C 228.257812 52.484375 228.960938 52.210938 229.679688 51.972656 C 230.398438 51.734375 231.125 51.53125 231.863281 51.363281 C 232.601562 51.195312 233.34375 51.066406 234.09375 50.972656 C 234.847656 50.878906 235.601562 50.820312 236.355469 50.800781 C 237.113281 50.78125 237.867188 50.796875 238.621094 50.851562 C 239.378906 50.90625 240.128906 50.996094 240.871094 51.125 C 241.617188 51.253906 242.355469 51.417969 243.085938 51.617188 C 243.816406 51.816406 244.535156 52.050781 245.238281 52.324219 C 245.945312 52.59375 246.636719 52.898438 247.3125 53.238281 C 247.992188 53.578125 248.648438 53.949219 249.289062 54.351562 C 249.929688 54.753906 250.546875 55.1875 251.144531 55.652344 C 251.742188 56.117188 252.316406 56.609375 252.863281 57.128906 C 253.414062 57.652344 253.933594 58.195312 254.429688 58.769531 C 254.925781 59.339844 255.390625 59.9375 255.828125 60.554688 C 256.265625 61.171875 256.671875 61.808594 257.046875 62.464844 C 257.421875 63.125 257.761719 63.796875 258.070312 64.488281 C 258.378906 65.179688 258.648438 65.882812 258.890625 66.601562 C 259.128906 67.320312 259.332031 68.046875 259.5 68.785156 C 259.664062 69.523438 259.796875 70.269531 259.890625 71.019531 C 259.984375 71.769531 260.042969 72.523438 260.0625 73.28125 C 260.082031 74.035156 260.066406 74.792969 260.011719 75.546875 C 259.957031 76.300781 259.867188 77.050781 259.738281 77.796875 C 259.609375 78.542969 259.445312 79.28125 259.246094 80.007812 C 259.042969 80.738281 258.808594 81.457031 258.539062 82.164062 C 258.265625 82.871094 257.960938 83.5625 257.625 84.238281 C 257.285156 84.914062 256.914062 85.570312 256.511719 86.210938 C 256.105469 86.851562 255.671875 87.472656 255.207031 88.066406 C 254.746094 88.664062 254.253906 89.238281 253.730469 89.789062 C 253.210938 90.335938 252.664062 90.859375 252.09375 91.355469 C 251.519531 91.847656 250.925781 92.316406 250.308594 92.753906 C 249.691406 93.1875 249.054688 93.59375 248.394531 93.96875 C 247.738281 94.34375 247.0625 94.683594 246.371094 94.992188 C 245.683594 95.300781 244.976562 95.574219 244.257812 95.8125 C 243.542969 96.050781 242.8125 96.253906 242.074219 96.421875 C 241.339844 96.589844 240.59375 96.71875 239.84375 96.8125 C 239.09375 96.90625 238.339844 96.964844 237.582031 96.984375 C 236.828125 97.003906 236.070312 96.988281 235.316406 96.933594 C 234.5625 96.878906 233.8125 96.789062 233.066406 96.660156 C 232.320312 96.53125 231.582031 96.367188 230.851562 96.167969 Z M 230.851562 96.167969 " fill-opacity="1" fill-rule="nonzero"/><path fill="#222222" d="M 260.035156 80.222656 C 258.285156 86.59375 254.121094 91.652344 248.800781 94.679688 C 243.480469 97.707031 237.007812 98.707031 230.640625 96.957031 C 224.269531 95.207031 219.210938 91.042969 216.183594 85.722656 C 213.15625 80.402344 212.15625 73.929688 213.90625 67.5625 C 215.65625 61.191406 219.820312 56.132812 225.140625 53.105469 C 230.457031 50.078125 236.933594 49.082031 243.300781 50.828125 C 249.671875 52.578125 254.730469 56.742188 257.757812 62.0625 C 260.785156 67.382812 261.78125 73.855469 260.035156 80.222656 Z M 247.992188 93.257812 C 252.949219 90.4375 256.828125 85.726562 258.457031 79.796875 C 260.085938 73.859375 259.15625 67.828125 256.335938 62.871094 C 253.515625 57.914062 248.804688 54.035156 242.871094 52.40625 C 236.9375 50.773438 230.902344 51.707031 225.945312 54.527344 C 220.992188 57.347656 217.109375 62.058594 215.480469 67.992188 C 213.851562 73.925781 214.78125 79.957031 217.605469 84.917969 C 220.425781 89.871094 225.136719 93.753906 231.066406 95.382812 C 237 97.011719 243.035156 96.082031 247.992188 93.257812 Z M 247.992188 93.257812 " fill-opacity="1" fill-rule="nonzero"/><path fill="#222222" d="M 235.878906 74.675781 C 235.847656 74.226562 236.1875 73.835938 236.640625 73.804688 C 237.089844 73.769531 237.480469 74.109375 237.511719 74.5625 L 237.515625 74.589844 C 237.660156 76.648438 237.175781 78.410156 236.125 79.714844 C 235.058594 81.03125 233.449219 81.847656 231.355469 82.003906 L 231.332031 82.003906 C 230.378906 82.070312 230.136719 82.886719 229.832031 83.894531 C 229.332031 85.558594 228.726562 87.582031 225.816406 88.820312 C 225.617188 88.902344 225.464844 89.070312 225.308594 89.238281 C 225.109375 89.449219 224.914062 89.664062 224.597656 89.859375 C 224.214844 90.101562 223.707031 89.980469 223.46875 89.597656 C 223.230469 89.214844 223.347656 88.710938 223.734375 88.472656 C 223.863281 88.390625 223.988281 88.257812 224.113281 88.121094 C 224.382812 87.828125 224.65625 87.535156 225.175781 87.316406 C 227.378906 86.378906 227.863281 84.757812 228.265625 83.425781 C 228.746094 81.820312 229.136719 80.519531 231.214844 80.371094 L 231.238281 80.371094 C 232.851562 80.25 234.074219 79.648438 234.847656 78.6875 C 235.636719 77.710938 235.996094 76.34375 235.882812 74.703125 Z M 235.878906 74.675781 " fill-opacity="1" fill-rule="nonzero"/><path fill="#222222" d="M 235.613281 66.597656 C 236.011719 66.816406 236.15625 67.3125 235.9375 67.710938 C 235.71875 68.105469 235.222656 68.25 234.828125 68.03125 C 234.023438 67.59375 233.488281 67.132812 233.023438 66.738281 C 232.101562 65.949219 231.550781 65.480469 228.648438 66.660156 C 226.785156 67.414062 226.296875 66.695312 225.632812 65.710938 C 225.085938 64.90625 224.324219 63.785156 220.214844 64.585938 C 219.855469 64.65625 219.738281 64.617188 219.507812 64.539062 C 219.460938 64.527344 219.464844 64.523438 219.4375 64.515625 C 219 64.398438 218.742188 63.949219 218.863281 63.511719 C 218.980469 63.078125 219.429688 62.820312 219.863281 62.941406 L 219.960938 62.96875 C 225.074219 61.984375 226.1875 63.621094 226.980469 64.796875 C 227.21875 65.144531 227.394531 65.402344 228.035156 65.140625 C 231.855469 63.589844 232.6875 64.300781 234.085938 65.496094 C 234.488281 65.839844 234.953125 66.234375 235.613281 66.597656 Z M 235.613281 66.597656 " fill-opacity="1" fill-rule="nonzero"/><path fill="#222222" d="M 242.636719 59.449219 C 242.71875 59.894531 242.425781 60.320312 241.980469 60.398438 C 241.539062 60.480469 241.113281 60.1875 241.03125 59.742188 C 241.027344 59.722656 241.015625 59.671875 241 59.59375 C 240.820312 58.765625 240.449219 57.96875 239.882812 57.4375 C 239.371094 56.957031 238.675781 56.699219 237.792969 56.863281 L 237.699219 56.882812 C 236.648438 57.109375 236.101562 56.519531 235.441406 55.804688 C 234.726562 55.039062 233.796875 54.035156 231.300781 55.046875 C 231.195312 55.089844 231.085938 55.109375 230.980469 55.109375 L 230.863281 55.113281 C 230.410156 55.132812 230.03125 54.78125 230.011719 54.332031 C 229.992188 53.878906 230.339844 53.5 230.792969 53.480469 L 230.816406 53.480469 C 234.261719 52.132812 235.605469 53.582031 236.636719 54.691406 C 236.953125 55.03125 237.214844 55.316406 237.359375 55.285156 C 237.378906 55.28125 237.421875 55.269531 237.5 55.257812 C 238.960938 54.984375 240.132812 55.429688 241.003906 56.25 C 241.824219 57.019531 242.355469 58.125 242.601562 59.253906 C 242.609375 59.289062 242.621094 59.355469 242.636719 59.449219 Z M 242.636719 59.449219 " fill-opacity="1" fill-rule="nonzero"/><path fill="#222222" d="M 237.855469 63.324219 C 237.46875 63.5625 236.964844 63.445312 236.726562 63.0625 C 236.6875 63 236.660156 62.933594 236.636719 62.863281 L 236.632812 62.867188 C 236.550781 62.765625 236.425781 62.636719 236.269531 62.496094 C 235.65625 61.945312 234.578125 61.261719 233.484375 61.5 C 231.605469 61.910156 231.078125 61.03125 230.515625 60.097656 C 230.09375 59.394531 229.636719 58.636719 226.449219 60.09375 C 226.03125 60.285156 225.921875 60.246094 225.605469 60.136719 C 225.582031 60.128906 225.554688 60.121094 225.550781 60.121094 C 225.113281 60 224.859375 59.550781 224.976562 59.117188 C 225.089844 58.695312 225.515625 58.441406 225.9375 58.535156 C 230.304688 56.578125 231.144531 57.96875 231.917969 59.253906 C 232.167969 59.667969 232.402344 60.058594 233.140625 59.898438 C 234.890625 59.515625 236.480469 60.492188 237.355469 61.277344 C 237.585938 61.480469 237.765625 61.675781 237.894531 61.832031 C 238.113281 62.097656 238.238281 62.378906 238.246094 62.585938 C 238.253906 62.90625 238.125 63.15625 237.855469 63.324219 Z M 236.636719 62.863281 L 236.636719 62.855469 C 236.636719 62.859375 236.636719 62.867188 236.632812 62.867188 Z M 236.636719 62.863281 " fill-opacity="1" fill-rule="nonzero"/><path fill="#222222" d="M 234.453125 70.867188 C 234.5625 70.429688 235.003906 70.160156 235.441406 70.269531 C 235.878906 70.375 236.148438 70.820312 236.039062 71.257812 L 236.015625 71.34375 C 235.609375 72.832031 234.445312 73.472656 233.105469 73.667969 C 231.945312 73.835938 230.652344 73.644531 229.707031 73.410156 C 229.644531 73.394531 229.550781 73.367188 229.429688 73.335938 C 227.613281 72.835938 226.949219 73.453125 226.292969 74.066406 C 225.320312 74.964844 224.363281 75.855469 221.828125 75.160156 C 221.394531 75.042969 221.136719 74.59375 221.253906 74.160156 C 221.375 73.722656 221.820312 73.46875 222.257812 73.585938 C 223.914062 74.042969 224.542969 73.457031 225.179688 72.867188 C 226.167969 71.949219 227.167969 71.019531 229.859375 71.757812 C 229.902344 71.769531 229.980469 71.792969 230.097656 71.820312 C 230.890625 72.015625 231.957031 72.179688 232.875 72.046875 C 233.617188 71.9375 234.246094 71.621094 234.441406 70.914062 C 234.445312 70.894531 234.441406 70.917969 234.453125 70.867188 Z M 234.453125 70.867188 " fill-opacity="1" fill-rule="nonzero"/><path fill="#222222" d="M 253.75 75.417969 C 253.308594 75.519531 252.871094 75.242188 252.769531 74.804688 C 252.667969 74.363281 252.941406 73.925781 253.382812 73.824219 C 254.023438 73.675781 254.605469 73.761719 255.121094 74.027344 C 255.769531 74.359375 256.269531 74.96875 256.59375 75.738281 C 256.882812 76.433594 257.035156 77.277344 257.011719 78.164062 C 256.972656 79.59375 256.484375 81.148438 255.410156 82.367188 C 254.949219 82.890625 254.957031 83.1875 254.96875 83.546875 C 255.003906 84.59375 255.046875 85.9375 251.691406 89.5 C 251.625 89.574219 251.554688 89.667969 251.492188 89.769531 C 251.429688 89.875 251.378906 89.976562 251.351562 90.0625 C 251.207031 90.488281 250.746094 90.722656 250.316406 90.578125 C 249.890625 90.433594 249.65625 89.972656 249.800781 89.542969 C 249.871094 89.332031 249.972656 89.117188 250.089844 88.925781 C 250.207031 88.730469 250.347656 88.539062 250.5 88.382812 C 253.390625 85.308594 253.359375 84.347656 253.335938 83.597656 C 253.3125 82.882812 253.296875 82.289062 254.179688 81.285156 C 254.984375 80.371094 255.351562 79.203125 255.378906 78.125 C 255.394531 77.476562 255.289062 76.867188 255.082031 76.371094 C 254.902344 75.949219 254.660156 75.628906 254.371094 75.480469 C 254.195312 75.390625 253.988281 75.363281 253.75 75.417969 Z M 253.75 75.417969 " fill-opacity="1" fill-rule="nonzero"/><path fill="#222222" d="M 249.546875 77.289062 C 249.855469 76.960938 250.375 76.949219 250.703125 77.261719 C 251.027344 77.570312 251.042969 78.089844 250.730469 78.414062 C 248.789062 80.460938 248.3125 82.824219 247.902344 84.839844 C 247.273438 87.949219 246.78125 90.363281 242.519531 90.507812 C 241.851562 90.527344 241.054688 91.835938 240.460938 92.8125 C 239.921875 93.691406 239.496094 94.394531 238.820312 94.414062 C 238.367188 94.425781 237.992188 94.070312 237.980469 93.621094 C 237.96875 93.167969 238.324219 92.792969 238.773438 92.78125 C 238.988281 92.777344 238.785156 92.421875 239.066406 91.960938 C 239.851562 90.664062 240.914062 88.925781 242.46875 88.875 C 245.4375 88.773438 245.816406 86.914062 246.300781 84.519531 C 246.753906 82.289062 247.285156 79.671875 249.546875 77.289062 Z M 249.546875 77.289062 " fill-opacity="1" fill-rule="nonzero"/><path fill="#222222" d="M 242.464844 78.742188 C 242.613281 78.316406 243.078125 78.089844 243.503906 78.234375 C 243.929688 78.382812 244.15625 78.847656 244.007812 79.273438 C 243.675781 80.238281 243.066406 80.757812 242.34375 81.371094 C 241.5 82.085938 240.46875 82.960938 239.753906 85.054688 C 239.539062 85.695312 239.066406 85.730469 238.347656 85.789062 C 237.125 85.882812 234.40625 86.097656 233.398438 91.289062 C 233.304688 91.777344 232.769531 91.980469 232.097656 92.035156 C 231.441406 92.085938 230.390625 92.125 230.390625 92.125 C 229.941406 92.082031 229.609375 91.6875 229.648438 91.238281 C 229.691406 90.789062 230.085938 90.457031 230.535156 90.496094 C 230.539062 90.496094 231.316406 90.453125 231.914062 90.40625 C 233.253906 84.546875 236.660156 84.277344 238.21875 84.15625 C 238.238281 84.152344 238.234375 84.203125 238.226562 84.269531 L 238.238281 84.429688 C 239.097656 81.976562 240.300781 80.957031 241.285156 80.121094 C 241.824219 79.664062 242.28125 79.277344 242.464844 78.742188 Z M 238.207031 84.53125 L 238.238281 84.429688 L 238.226562 84.269531 C 238.203125 84.464844 238.109375 84.816406 238.207031 84.53125 Z M 238.207031 84.53125 " fill-opacity="1" fill-rule="nonzero"/><path fill="#222222" d="M 249.210938 59.25 C 249.636719 59.105469 250.101562 59.335938 250.242188 59.761719 C 250.386719 60.191406 250.15625 60.65625 249.726562 60.796875 C 248.699219 61.140625 248.265625 60.285156 247.667969 59.101562 C 247.074219 57.929688 246.21875 56.242188 244.632812 55.878906 C 244.082031 55.75 243.660156 55.253906 243.269531 54.796875 C 243.101562 54.597656 243.164062 54.457031 243.054688 54.4375 C 242.613281 54.355469 242.320312 53.929688 242.398438 53.488281 C 242.480469 53.042969 242.90625 52.75 243.351562 52.832031 C 243.816406 52.917969 244.15625 53.3125 244.519531 53.738281 C 244.738281 53.996094 244.976562 54.277344 244.996094 54.28125 C 247.332031 54.816406 248.390625 56.910156 249.125 58.363281 C 249.355469 58.816406 248.898438 59.351562 249.210938 59.246094 Z M 249.210938 59.25 " fill-opacity="1" fill-rule="nonzero"/><path fill="#222222" d="M 242.460938 78.824219 C 241.824219 78.652344 241.210938 78.414062 240.617188 78.117188 C 240.027344 77.824219 239.472656 77.472656 238.949219 77.066406 C 238.425781 76.660156 237.949219 76.207031 237.515625 75.707031 C 237.082031 75.207031 236.703125 74.667969 236.375 74.09375 C 236.050781 73.519531 235.78125 72.917969 235.574219 72.292969 C 235.363281 71.664062 235.21875 71.023438 235.136719 70.367188 C 235.054688 69.710938 235.035156 69.050781 235.082031 68.390625 C 235.132812 67.734375 235.242188 67.085938 235.417969 66.445312 C 235.59375 65.808594 235.828125 65.195312 236.125 64.601562 C 236.421875 64.011719 236.769531 63.457031 237.175781 62.933594 C 237.582031 62.410156 238.035156 61.933594 238.535156 61.5 C 239.035156 61.066406 239.574219 60.6875 240.148438 60.359375 C 240.722656 60.03125 241.324219 59.765625 241.949219 59.554688 C 242.578125 59.347656 243.21875 59.203125 243.875 59.121094 C 244.53125 59.039062 245.191406 59.019531 245.851562 59.066406 C 246.511719 59.113281 247.160156 59.226562 247.796875 59.402344 C 248.433594 59.578125 249.046875 59.8125 249.640625 60.109375 C 250.230469 60.40625 250.789062 60.753906 251.308594 61.160156 C 251.832031 61.566406 252.308594 62.019531 252.742188 62.519531 C 253.175781 63.019531 253.554688 63.558594 253.882812 64.132812 C 254.210938 64.707031 254.476562 65.308594 254.6875 65.933594 C 254.894531 66.5625 255.039062 67.203125 255.121094 67.859375 C 255.203125 68.515625 255.222656 69.175781 255.175781 69.835938 C 255.128906 70.492188 255.015625 71.144531 254.839844 71.78125 C 254.667969 72.417969 254.429688 73.03125 254.132812 73.625 C 253.839844 74.214844 253.488281 74.773438 253.082031 75.292969 C 252.675781 75.816406 252.222656 76.292969 251.722656 76.726562 C 251.222656 77.160156 250.6875 77.539062 250.109375 77.867188 C 249.535156 78.195312 248.933594 78.460938 248.308594 78.671875 C 247.679688 78.878906 247.039062 79.023438 246.382812 79.105469 C 245.726562 79.1875 245.066406 79.207031 244.410156 79.160156 C 243.75 79.113281 243.101562 79 242.460938 78.824219 Z M 242.460938 78.824219 " fill-opacity="1" fill-rule="nonzero"/><path fill="#222222" d="M 255.628906 72 C 254.832031 74.898438 252.9375 77.199219 250.515625 78.578125 C 248.09375 79.957031 245.148438 80.410156 242.25 79.613281 L 242.246094 79.613281 C 239.347656 78.816406 237.042969 76.921875 235.667969 74.5 C 234.289062 72.078125 233.835938 69.132812 234.628906 66.234375 L 234.632812 66.230469 C 235.429688 63.332031 237.324219 61.027344 239.746094 59.648438 C 242.164062 58.273438 245.113281 57.820312 248.011719 58.613281 L 248.015625 58.613281 C 250.914062 59.414062 253.214844 61.308594 254.59375 63.730469 C 255.972656 66.148438 256.425781 69.097656 255.628906 71.996094 Z M 249.707031 77.15625 C 251.765625 75.984375 253.378906 74.027344 254.054688 71.566406 C 254.730469 69.101562 254.34375 66.59375 253.171875 64.535156 C 252 62.476562 250.042969 60.867188 247.582031 60.191406 C 245.117188 59.511719 242.613281 59.898438 240.550781 61.070312 C 238.492188 62.242188 236.882812 64.199219 236.207031 66.660156 C 235.527344 69.125 235.914062 71.632812 237.085938 73.691406 C 238.257812 75.75 240.214844 77.363281 242.679688 78.039062 C 245.144531 78.714844 247.648438 78.328125 249.707031 77.15625 Z M 249.707031 77.15625 " fill-opacity="1" fill-rule="nonzero"/><path fill="#cd0e0e" d="M 130.011719 88.429688 C 130.621094 88.257812 131.226562 88.0625 131.816406 87.835938 C 132.410156 87.605469 132.992188 87.351562 133.558594 87.066406 C 134.125 86.78125 134.679688 86.472656 135.214844 86.132812 C 135.753906 85.792969 136.273438 85.429688 136.773438 85.039062 C 137.273438 84.652344 137.757812 84.238281 138.21875 83.800781 C 138.675781 83.363281 139.117188 82.90625 139.53125 82.425781 C 139.945312 81.945312 140.339844 81.445312 140.703125 80.929688 C 141.070312 80.410156 141.410156 79.875 141.726562 79.324219 C 142.039062 78.769531 142.328125 78.203125 142.585938 77.625 C 142.84375 77.046875 143.074219 76.453125 143.273438 75.851562 C 143.472656 75.25 143.644531 74.636719 143.785156 74.019531 C 143.925781 73.398438 144.035156 72.773438 144.113281 72.144531 C 144.191406 71.515625 144.238281 70.882812 144.257812 70.246094 C 144.273438 69.613281 144.257812 68.980469 144.214844 68.347656 C 144.167969 67.710938 144.09375 67.082031 143.984375 66.457031 C 143.878906 65.832031 143.738281 65.210938 143.570312 64.601562 C 143.402344 63.988281 143.207031 63.386719 142.980469 62.792969 C 142.75 62.199219 142.496094 61.617188 142.210938 61.050781 C 141.925781 60.484375 141.617188 59.929688 141.277344 59.394531 C 140.9375 58.855469 140.574219 58.335938 140.183594 57.835938 C 139.792969 57.335938 139.382812 56.855469 138.945312 56.394531 C 138.507812 55.933594 138.050781 55.496094 137.570312 55.078125 C 137.089844 54.664062 136.589844 54.273438 136.070312 53.90625 C 135.554688 53.539062 135.019531 53.199219 134.464844 52.882812 C 133.914062 52.570312 133.347656 52.285156 132.769531 52.027344 C 132.1875 51.765625 131.597656 51.539062 130.996094 51.335938 C 130.394531 51.136719 129.78125 50.964844 129.164062 50.824219 C 128.542969 50.6875 127.917969 50.574219 127.289062 50.496094 C 126.660156 50.417969 126.027344 50.371094 125.390625 50.351562 C 124.757812 50.335938 124.125 50.351562 123.488281 50.394531 C 122.855469 50.441406 122.226562 50.519531 121.601562 50.625 C 120.976562 50.734375 120.355469 50.871094 119.742188 51.039062 C 119.132812 51.207031 118.527344 51.402344 117.9375 51.632812 C 117.34375 51.859375 116.761719 52.113281 116.195312 52.398438 C 115.628906 52.683594 115.074219 52.996094 114.539062 53.332031 C 114 53.671875 113.480469 54.035156 112.980469 54.425781 C 112.480469 54.816406 112 55.230469 111.539062 55.664062 C 111.078125 56.101562 110.636719 56.5625 110.222656 57.039062 C 109.808594 57.519531 109.417969 58.019531 109.050781 58.539062 C 108.683594 59.058594 108.34375 59.589844 108.027344 60.144531 C 107.714844 60.695312 107.429688 61.261719 107.167969 61.839844 C 106.910156 62.421875 106.679688 63.011719 106.480469 63.613281 C 106.28125 64.21875 106.109375 64.828125 105.96875 65.449219 C 105.828125 66.066406 105.71875 66.691406 105.640625 67.320312 C 105.5625 67.953125 105.515625 68.582031 105.496094 69.21875 C 105.480469 69.851562 105.496094 70.488281 105.539062 71.121094 C 105.585938 71.753906 105.660156 72.382812 105.769531 73.007812 C 105.875 73.636719 106.015625 74.253906 106.183594 74.867188 C 106.351562 75.476562 106.546875 76.082031 106.777344 76.675781 C 107.003906 77.265625 107.257812 77.847656 107.542969 78.414062 C 107.828125 78.984375 108.140625 79.535156 108.476562 80.070312 C 108.816406 80.609375 109.179688 81.128906 109.570312 81.628906 C 109.960938 82.132812 110.371094 82.613281 110.808594 83.074219 C 111.246094 83.535156 111.703125 83.972656 112.183594 84.386719 C 112.664062 84.804688 113.164062 85.195312 113.683594 85.5625 C 114.199219 85.925781 114.734375 86.269531 115.289062 86.582031 C 115.839844 86.894531 116.40625 87.183594 116.984375 87.441406 C 117.566406 87.699219 118.15625 87.929688 118.757812 88.128906 C 119.363281 88.328125 119.972656 88.5 120.589844 88.640625 C 121.210938 88.78125 121.835938 88.890625 122.464844 88.96875 C 123.09375 89.046875 123.726562 89.097656 124.363281 89.113281 C 124.996094 89.128906 125.632812 89.117188 126.265625 89.070312 C 126.898438 89.023438 127.527344 88.949219 128.152344 88.839844 C 128.777344 88.734375 129.398438 88.597656 130.011719 88.429688 Z M 130.011719 88.429688 " fill-opacity="1" fill-rule="nonzero"/><path fill="#222222" d="M 105.417969 75.160156 C 105.398438 75.113281 105.382812 75.058594 105.375 75.007812 C 103.925781 69.652344 104.773438 64.210938 107.316406 59.742188 C 109.875 55.246094 114.148438 51.730469 119.53125 50.25 C 124.910156 48.773438 130.378906 49.617188 134.871094 52.175781 C 139.363281 54.730469 142.882812 59.003906 144.359375 64.386719 C 145.835938 69.765625 144.996094 75.234375 142.4375 79.726562 C 139.894531 84.199219 135.648438 87.703125 130.304688 89.195312 C 130.253906 89.214844 130.203125 89.226562 130.148438 89.238281 C 124.796875 90.6875 119.355469 89.839844 114.886719 87.292969 C 110.414062 84.75 106.90625 80.507812 105.417969 75.160156 Z M 106.96875 74.652344 C 108.328125 79.597656 111.5625 83.523438 115.691406 85.871094 C 119.824219 88.222656 124.851562 89 129.796875 87.640625 C 134.738281 86.285156 138.664062 83.050781 141.015625 78.921875 C 143.367188 74.789062 144.144531 69.761719 142.785156 64.816406 C 141.429688 59.871094 138.195312 55.945312 134.066406 53.59375 C 129.933594 51.242188 124.90625 50.46875 119.960938 51.828125 C 115.015625 53.183594 111.089844 56.417969 108.738281 60.546875 C 106.386719 64.679688 105.613281 69.707031 106.972656 74.652344 Z M 106.96875 74.652344 " fill-opacity="1" fill-rule="nonzero"/><path fill="#222222" d="M 124.292969 70.285156 C 124.324219 69.835938 124.714844 69.496094 125.164062 69.527344 C 125.617188 69.558594 125.957031 69.949219 125.925781 70.402344 L 125.921875 70.421875 C 125.828125 71.765625 126.121094 72.882812 126.761719 73.675781 C 127.390625 74.453125 128.378906 74.941406 129.695312 75.039062 L 129.714844 75.039062 C 131.550781 75.167969 131.890625 76.300781 132.308594 77.699219 C 132.636719 78.789062 133.035156 80.113281 134.828125 80.878906 C 135.289062 81.074219 135.527344 81.332031 135.765625 81.585938 C 135.863281 81.691406 135.960938 81.796875 136.054688 81.859375 C 136.441406 82.097656 136.558594 82.601562 136.320312 82.984375 C 136.082031 83.367188 135.574219 83.484375 135.191406 83.246094 C 134.914062 83.070312 134.742188 82.886719 134.566406 82.699219 C 134.449219 82.570312 134.328125 82.441406 134.1875 82.382812 C 131.6875 81.320312 131.167969 79.585938 130.742188 78.164062 C 130.503906 77.367188 130.308594 76.722656 129.601562 76.671875 L 129.582031 76.671875 C 127.785156 76.539062 126.402344 75.832031 125.488281 74.699219 C 124.582031 73.582031 124.164062 72.070312 124.289062 70.308594 Z M 124.292969 70.285156 " fill-opacity="1" fill-rule="nonzero"/><path fill="#222222" d="M 126.742188 64.929688 C 126.34375 65.148438 125.847656 65.003906 125.628906 64.609375 C 125.410156 64.210938 125.554688 63.714844 125.953125 63.496094 C 126.496094 63.199219 126.878906 62.871094 127.214844 62.585938 C 128.425781 61.550781 129.144531 60.9375 132.425781 62.265625 C 132.867188 62.445312 132.988281 62.269531 133.152344 62.027344 C 133.839844 61.011719 134.796875 59.597656 139.148438 60.429688 L 139.199219 60.414062 C 139.632812 60.296875 140.082031 60.554688 140.203125 60.988281 C 140.320312 61.421875 140.0625 61.871094 139.628906 61.992188 C 139.589844 62 139.617188 61.996094 139.574219 62.007812 C 139.359375 62.082031 139.25 62.117188 138.914062 62.050781 C 135.550781 61.394531 134.941406 62.296875 134.503906 62.941406 C 133.910156 63.816406 133.472656 64.460938 131.8125 63.785156 C 129.449219 62.828125 129.011719 63.199219 128.277344 63.828125 C 127.878906 64.164062 127.425781 64.554688 126.742188 64.929688 Z M 126.742188 64.929688 " fill-opacity="1" fill-rule="nonzero"/><path fill="#222222" d="M 121.597656 57.882812 C 121.515625 58.328125 121.09375 58.621094 120.648438 58.539062 C 120.203125 58.457031 119.910156 58.03125 119.992188 57.589844 C 120.007812 57.503906 120.019531 57.449219 120.023438 57.421875 C 120.234375 56.449219 120.691406 55.496094 121.402344 54.828125 C 122.164062 54.113281 123.183594 53.726562 124.457031 53.964844 L 124.578125 53.988281 C 124.625 53.996094 124.824219 53.785156 125.0625 53.53125 C 125.949219 52.570312 127.109375 51.320312 130.070312 52.472656 C 130.519531 52.492188 130.871094 52.871094 130.851562 53.324219 C 130.832031 53.773438 130.449219 54.125 130 54.105469 L 129.910156 54.101562 C 129.800781 54.101562 129.691406 54.082031 129.585938 54.039062 C 127.574219 53.226562 126.828125 54.03125 126.257812 54.644531 C 125.675781 55.273438 125.191406 55.792969 124.238281 55.589844 L 124.160156 55.570312 C 123.46875 55.441406 122.921875 55.644531 122.523438 56.019531 C 122.070312 56.445312 121.769531 57.089844 121.625 57.761719 Z M 121.597656 57.882812 " fill-opacity="1" fill-rule="nonzero"/><path fill="#222222" d="M 125.269531 60.554688 C 125.25 60.609375 125.226562 60.660156 125.195312 60.710938 C 124.957031 61.097656 124.449219 61.214844 124.066406 60.976562 C 123.796875 60.808594 123.667969 60.558594 123.675781 60.242188 C 123.683594 60.039062 123.796875 59.773438 124 59.527344 C 124.109375 59.394531 124.269531 59.226562 124.464844 59.050781 C 125.222656 58.371094 126.597656 57.527344 128.121094 57.859375 C 128.644531 57.972656 128.820312 57.6875 129.003906 57.378906 C 129.679688 56.257812 130.414062 55.042969 134.152344 56.707031 C 134.558594 56.640625 134.960938 56.890625 135.070312 57.296875 C 135.1875 57.734375 134.933594 58.183594 134.496094 58.300781 L 134.460938 58.3125 C 134.15625 58.417969 134.050781 58.457031 133.65625 58.273438 C 131.085938 57.097656 130.734375 57.683594 130.40625 58.226562 C 129.910156 59.046875 129.441406 59.824219 127.773438 59.460938 C 126.910156 59.273438 126.046875 59.824219 125.554688 60.265625 C 125.433594 60.375 125.335938 60.476562 125.269531 60.554688 Z M 125.269531 60.554688 " fill-opacity="1" fill-rule="nonzero"/><path fill="#222222" d="M 125.53125 67.554688 C 125.421875 67.117188 125.691406 66.671875 126.128906 66.566406 C 126.566406 66.457031 127.011719 66.726562 127.117188 67.164062 C 127.128906 67.210938 127.121094 67.175781 127.125 67.199219 C 127.273438 67.730469 127.757812 67.96875 128.332031 68.054688 C 129.082031 68.164062 129.960938 68.027344 130.613281 67.867188 C 130.71875 67.839844 130.78125 67.824219 130.808594 67.816406 C 133.140625 67.175781 134.007812 67.980469 134.863281 68.777344 C 135.371094 69.246094 135.871094 69.710938 137.191406 69.347656 C 137.625 69.230469 138.074219 69.488281 138.191406 69.921875 C 138.3125 70.359375 138.054688 70.804688 137.621094 70.925781 C 135.421875 71.527344 134.589844 70.757812 133.75 69.972656 C 133.222656 69.488281 132.691406 68.992188 131.238281 69.390625 C 131.132812 69.421875 131.050781 69.441406 131.003906 69.453125 C 130.199219 69.65625 129.09375 69.816406 128.101562 69.671875 C 126.929688 69.503906 125.910156 68.9375 125.550781 67.628906 C 125.535156 67.570312 125.53125 67.5625 125.53125 67.554688 Z M 125.53125 67.554688 " fill-opacity="1" fill-rule="nonzero"/><path fill="#222222" d="M 111.132812 69.546875 C 111.574219 69.648438 111.847656 70.085938 111.746094 70.527344 C 111.644531 70.96875 111.207031 71.242188 110.765625 71.140625 C 110.597656 71.101562 110.453125 71.121094 110.332031 71.183594 C 110.121094 71.292969 109.9375 71.535156 109.800781 71.863281 C 109.632812 72.265625 109.546875 72.757812 109.558594 73.285156 C 109.582031 74.160156 109.882812 75.109375 110.535156 75.851562 C 111.308594 76.730469 111.292969 77.253906 111.273438 77.882812 C 111.253906 78.488281 111.230469 79.265625 113.621094 81.804688 C 113.753906 81.945312 113.878906 82.109375 113.980469 82.28125 C 114.082031 82.453125 114.171875 82.640625 114.234375 82.828125 C 114.378906 83.253906 114.148438 83.71875 113.71875 83.859375 C 113.292969 84.003906 112.828125 83.773438 112.683594 83.34375 C 112.664062 83.28125 112.625 83.207031 112.578125 83.128906 C 112.53125 83.046875 112.476562 82.976562 112.429688 82.921875 C 109.574219 79.894531 109.613281 78.734375 109.640625 77.832031 C 109.648438 77.558594 109.65625 77.332031 109.304688 76.933594 C 108.378906 75.882812 107.960938 74.550781 107.925781 73.320312 C 107.90625 72.558594 108.035156 71.832031 108.289062 71.230469 C 108.570312 70.558594 109.011719 70.023438 109.585938 69.730469 C 110.042969 69.492188 110.566406 69.414062 111.132812 69.546875 Z M 111.132812 69.546875 " fill-opacity="1" fill-rule="nonzero"/><path fill="#222222" d="M 113.234375 73.621094 C 112.921875 73.292969 112.9375 72.777344 113.261719 72.464844 C 113.589844 72.152344 114.109375 72.167969 114.417969 72.492188 C 116.34375 74.519531 116.792969 76.738281 117.175781 78.625 C 117.570312 80.578125 117.878906 82.09375 120.265625 82.175781 C 121.644531 82.222656 122.554688 83.714844 123.230469 84.828125 C 123.449219 85.179688 123.117188 85.449219 123.367188 85.457031 C 123.820312 85.46875 124.175781 85.84375 124.160156 86.292969 C 124.148438 86.746094 123.773438 87.101562 123.324219 87.089844 C 122.683594 87.070312 122.308594 86.453125 121.835938 85.679688 C 121.355469 84.886719 120.707031 83.824219 120.214844 83.808594 C 116.535156 83.683594 116.113281 81.613281 115.574219 78.945312 C 115.234375 77.273438 114.835938 75.308594 113.234375 73.621094 Z M 113.234375 73.621094 " fill-opacity="1" fill-rule="nonzero"/><path fill="#222222" d="M 118.847656 74.292969 C 118.699219 73.867188 118.925781 73.402344 119.351562 73.253906 C 119.777344 73.109375 120.242188 73.335938 120.390625 73.761719 C 120.53125 74.175781 120.902344 74.488281 121.339844 74.859375 C 122.140625 75.542969 123.113281 76.367188 123.835938 78.261719 L 123.839844 78.214844 C 125.167969 78.320312 128.066406 78.550781 129.226562 83.46875 C 129.699219 83.503906 130.246094 83.539062 130.246094 83.539062 C 130.695312 83.488281 131.101562 83.808594 131.152344 84.257812 C 131.203125 84.707031 130.878906 85.113281 130.433594 85.164062 C 130.429688 85.164062 129.519531 85.136719 128.957031 85.089844 C 128.335938 85.039062 127.839844 84.84375 127.746094 84.359375 C 126.921875 80.101562 124.707031 79.925781 123.710938 79.847656 C 123.058594 79.796875 122.625 79.761719 122.414062 79.144531 C 121.828125 77.421875 120.980469 76.699219 120.285156 76.109375 C 119.664062 75.582031 119.136719 75.136719 118.847656 74.292969 Z M 123.835938 78.261719 C 123.878906 78.375 123.921875 78.496094 123.964844 78.617188 C 124.101562 79.015625 123.84375 78.246094 123.839844 78.214844 Z M 123.835938 78.261719 " fill-opacity="1" fill-rule="nonzero"/><path fill="#222222" d="M 114.128906 58.867188 C 113.703125 58.726562 113.472656 58.261719 113.613281 57.835938 C 113.757812 57.40625 114.21875 57.175781 114.648438 57.320312 C 115.015625 57.441406 114.398438 56.960938 114.558594 56.640625 C 115.1875 55.398438 116.09375 53.609375 118.113281 53.148438 C 118.136719 53.144531 118.273438 52.9375 118.441406 52.734375 C 118.765625 52.359375 119.0625 52.007812 119.5 51.929688 C 119.945312 51.847656 120.371094 52.140625 120.449219 52.585938 C 120.53125 53.027344 120.238281 53.453125 119.792969 53.535156 C 119.65625 53.558594 119.816406 53.644531 119.691406 53.792969 C 119.351562 54.191406 118.980469 54.628906 118.476562 54.742188 C 117.207031 55.035156 116.503906 56.417969 116.019531 57.378906 C 115.488281 58.429688 115.101562 59.191406 114.128906 58.867188 Z M 114.128906 58.867188 " fill-opacity="1" fill-rule="nonzero"/><path fill="#222222" d="M 120.265625 73.875 C 120.800781 73.726562 121.316406 73.53125 121.8125 73.28125 C 122.308594 73.035156 122.777344 72.738281 123.214844 72.398438 C 123.652344 72.058594 124.054688 71.679688 124.417969 71.257812 C 124.78125 70.839844 125.101562 70.386719 125.375 69.90625 C 125.648438 69.421875 125.875 68.917969 126.050781 68.390625 C 126.226562 67.867188 126.347656 67.328125 126.414062 66.777344 C 126.484375 66.226562 126.5 65.671875 126.460938 65.121094 C 126.421875 64.566406 126.328125 64.023438 126.179688 63.488281 C 126.03125 62.953125 125.835938 62.4375 125.585938 61.941406 C 125.339844 61.441406 125.042969 60.976562 124.703125 60.539062 C 124.363281 60.097656 123.984375 59.699219 123.5625 59.335938 C 123.144531 58.972656 122.691406 58.652344 122.210938 58.378906 C 121.726562 58.105469 121.222656 57.878906 120.695312 57.703125 C 120.171875 57.527344 119.632812 57.40625 119.082031 57.335938 C 118.53125 57.269531 117.976562 57.253906 117.425781 57.292969 C 116.871094 57.332031 116.328125 57.425781 115.792969 57.574219 C 115.257812 57.71875 114.742188 57.917969 114.246094 58.167969 C 113.746094 58.414062 113.28125 58.710938 112.84375 59.050781 C 112.402344 59.390625 112.003906 59.769531 111.640625 60.191406 C 111.277344 60.609375 110.957031 61.0625 110.683594 61.542969 C 110.410156 62.027344 110.183594 62.53125 110.007812 63.054688 C 109.832031 63.582031 109.710938 64.121094 109.640625 64.671875 C 109.574219 65.222656 109.558594 65.773438 109.597656 66.328125 C 109.636719 66.882812 109.730469 67.425781 109.878906 67.960938 C 110.023438 68.496094 110.222656 69.011719 110.472656 69.507812 C 110.71875 70.003906 111.015625 70.472656 111.355469 70.910156 C 111.695312 71.347656 112.074219 71.75 112.496094 72.113281 C 112.914062 72.476562 113.367188 72.796875 113.847656 73.070312 C 114.328125 73.34375 114.835938 73.570312 115.359375 73.746094 C 115.886719 73.921875 116.425781 74.042969 116.976562 74.109375 C 117.527344 74.179688 118.078125 74.195312 118.632812 74.15625 C 119.1875 74.117188 119.730469 74.023438 120.265625 73.875 Z M 120.265625 73.875 " fill-opacity="1" fill-rule="nonzero"/><path fill="#222222" d="M 109.113281 68.253906 C 109.09375 68.207031 109.078125 68.152344 109.070312 68.101562 C 108.421875 65.65625 108.8125 63.179688 109.972656 61.140625 C 111.132812 59.101562 113.066406 57.5 115.496094 56.808594 C 115.546875 56.789062 115.597656 56.773438 115.652344 56.765625 C 118.097656 56.117188 120.574219 56.507812 122.613281 57.667969 C 124.675781 58.839844 126.289062 60.800781 126.96875 63.269531 C 127.644531 65.738281 127.257812 68.246094 126.085938 70.308594 C 124.925781 72.347656 122.992188 73.949219 120.5625 74.640625 C 120.511719 74.660156 120.460938 74.671875 120.40625 74.683594 C 117.960938 75.332031 115.484375 74.941406 113.445312 73.78125 C 111.40625 72.621094 109.804688 70.6875 109.113281 68.257812 Z M 110.667969 67.75 C 111.222656 69.777344 112.554688 71.390625 114.253906 72.359375 C 115.953125 73.324219 118.019531 73.644531 120.054688 73.085938 C 122.085938 72.527344 123.699219 71.199219 124.664062 69.5 C 125.632812 67.800781 125.949219 65.734375 125.390625 63.699219 C 124.835938 61.667969 123.503906 60.054688 121.808594 59.089844 C 120.109375 58.121094 118.039062 57.800781 116.003906 58.359375 C 113.972656 58.917969 112.359375 60.246094 111.394531 61.945312 C 110.425781 63.644531 110.109375 65.714844 110.667969 67.746094 Z M 110.667969 67.75 " fill-opacity="1" fill-rule="nonzero"/></svg>